<svg xmlns="http://www.w3.org/2000/svg" viewBox="0 0 512 512"><defs/><path fill="#feda9b" d="M446 390h2V164l-37-27 32-20-22-17V79h27V59c0-27-22-49-49-49H58h-1c-26 0-47 27-47 61 0 28 17 51 39 51h65v169l31 19-31 28v90c0 48 26 74 57 74l7-1v1h268a56 56 0 100-112zm0 0"/><path d="M458 381V164c0-4-2-7-4-8l-25-18 20-13a10 10 0 000-16l-18-14v-6h17c6 0 10-4 10-10V59c0-33-26-59-59-59H57C41 0 27 8 16 22A82 82 0 000 71c0 34 22 61 49 61h55v158c0 4 2 7 5 9l19 13-21 18c-2 2-3 5-3 8v89c0 26 7 47 19 62s29 23 48 23h275a66 66 0 0012-131zM82 112c3-6 5-12 5-19 0-23-15-39-37-39a10 10 0 100 20c11 0 17 7 17 19s-10 19-18 19c-16 0-29-19-29-41 0-28 17-51 37-51 14 0 25 4 33 13 9 11 14 28 14 52v27zm57 365a77 77 0 01-15-53v-82l27-24a10 10 0 00-1-16l-26-17V84c0-28-6-50-19-64h294c22 0 39 17 39 39v10h-17c-5 0-10 4-10 10v21c0 3 2 6 4 8l11 8-20 13a10 10 0 00-1 16l33 24v211H179c-21 0-38 17-38 39 0 23 15 39 37 39a10 10 0 100-20c-10 0-17-7-17-19s10-19 18-19c16 0 29 19 29 41 0 28-16 51-37 51-13 0-24-5-32-15zm307 15H211l1-2c10-12 15-29 16-46h156a10 10 0 100-20H226c-2-9-5-17-10-24h230a46 46 0 010 92zm0 0"/><path d="M189 98c3 0 6-1 7-3 2-2 3-4 3-7s-1-5-3-7c-1-2-4-3-7-3a10 10 0 00-10 10 10 10 0 0010 10zm0 0M232 98h144a10 10 0 100-20H232a10 10 0 100 20zm0 0M189 154h187a10 10 0 100-20H189a10 10 0 000 20zm0 0M189 210h187a10 10 0 100-20H189a10 10 0 000 20zm0 0M189 266h187a10 10 0 100-20H189a10 10 0 000 20zm0 0M189 322h187a10 10 0 100-20H189a10 10 0 000 20zm0 0M423 424a10 10 0 00-10 10 10 10 0 0010 10 10 10 0 0010-10 10 10 0 00-10-10zm0 0"/></svg>