<svg xmlns="http://www.w3.org/2000/svg" viewBox="0 0 512 512"><defs/><g fill="#57555c"><path d="M425 208H87c-19 31-31 75-31 114 0 106 89 180 186 180h29c97 0 185-74 185-180 0-39-11-83-31-114z"/><path d="M406 162H106a30 30 0 100 60h93v-1a15 15 0 0129 0v1h178a30 30 0 000-60z"/></g><path fill="#fea832" d="M405 32c10 5 14 17 9 27l-45 103h-45l54-121c5-10 17-14 27-9z"/><g fill="#3bcd92"><path d="M356 282a20 20 0 11-40 0v-40a20 20 0 10-40 0v80a20 20 0 11-40 0V222a20 20 0 10-40 0 20 20 0 11-40 0v-60h200v120zM336 342a20 20 0 110 40 20 20 0 010-40zM256 50a20 20 0 110 40 20 20 0 010-40zM176 282a20 20 0 110 40 20 20 0 010-40z"/><circle cx="146.3" cy="40" r="30"/></g><path d="M236 452a10 10 0 100 20 10 10 0 000-20z"/><path d="M242 512h28c104 0 196-80 196-190 0-37-10-74-28-105a40 40 0 00-32-65h-22l39-89a30 30 0 10-54-26l-52 115H106a40 40 0 00-32 65c-18 31-28 68-28 105 0 110 92 190 196 190zm28-20h-28c-85 0-176-65-176-170 0-33 8-65 24-93 5 2 11 3 16 3h42a30 30 0 0058-10 10 10 0 0120 0v100a30 30 0 0060 0v-80a10 10 0 0120 0v40a30 30 0 0060 0v-50h40c5 0 11-1 16-3 16 28 24 60 24 93 0 94-79 170-176 170zm76-320v110a10 10 0 01-20 0v-40a30 30 0 00-60 0v80a10 10 0 01-20 0V222a30 30 0 00-60 0 10 10 0 01-20 0v-50h180zm80 20c0 11-9 20-20 20h-40v-40h40c11 0 20 9 20 20zM387 45c3-4 9-6 13-4a10 10 0 015 14l-43 97h-23l48-107zM106 172h40v40h-40c-5 0-9-2-13-5a20 20 0 0113-35z"/><path d="M200 445c-44-13-94-54-94-123a10 10 0 00-20 0 149 149 0 00111 143 10 10 0 003-20zM286 70a30 30 0 10-60 0 30 30 0 0060 0zm-40 0a10 10 0 1120 0 10 10 0 01-20 0zM186 40a40 40 0 10-80 0 40 40 0 0080 0zm-60 0a20 20 0 1140 0 20 20 0 01-40 0zM336 332a30 30 0 100 60 30 30 0 000-60zm0 40a10 10 0 110-20 10 10 0 010 20zM176 332a30 30 0 100-60 30 30 0 000 60zm0-40a10 10 0 110 20 10 10 0 010-20z"/></svg>