<svg xmlns="http://www.w3.org/2000/svg" viewBox="0 0 512 512"><defs/><path fill="#ffc107" d="M469 128a43 43 0 00-40 56l-35 22a53 53 0 01-70-11l-34-42c6-7 9-16 9-25a43 43 0 10-77 25l-34 42a53 53 0 01-70 11l-35-22c2-4 2-9 2-13a43 43 0 10-46 42l25 151c1 6 5 9 11 9h362c6 0 10-3 11-9l25-151a43 43 0 00-4-85z"/><ellipse cx="256" cy="362.7" fill="#ffa000" rx="181.3" ry="53.3"/><path fill="#ffd54f" d="M256 427c-95 0-192-22-192-64s97-64 192-64 192 22 192 64-97 64-192 64zm0-107c-112 0-171 28-171 43s59 42 171 42 171-27 171-42-59-43-171-43z"/><path d="M256 427c-95 0-192-22-192-64s97-64 192-64 192 22 192 64-97 64-192 64zm0-107c-112 0-171 28-171 43s59 42 171 42 171-27 171-42-59-43-171-43z"/><path d="M437 373h-1c-6-1-10-6-9-12l27-161 4-7c2-1 5-2 8-1a22 22 0 0025-21 21 21 0 10-40 11c4 5 2 12-3 15l-42 27a75 75 0 01-98-16l-40-49c-4-4-3-11 1-15a21 21 0 10-26 0c4 4 5 11 1 15l-40 49a75 75 0 01-98 16l-42-27c-5-3-7-10-3-15a21 21 0 10-40-11 22 22 0 0025 21c3-1 6 0 8 1l4 7 27 161a11 11 0 01-21 3L39 213a43 43 0 1144-29l35 22c23 14 53 10 70-11l34-42c-6-7-9-16-9-25a43 43 0 1177 25l34 42c17 21 47 25 70 11l35-22c-2-4-2-9-2-13a43 43 0 1146 42l-25 151c-1 6-5 9-11 9z"/></svg>