<svg xmlns="http://www.w3.org/2000/svg" viewBox="0 0 486 486"><defs/><path fill="#e2a63b" d="M486 318v55c0 19-50 35-111 35s-111-15-111-34v-6l-1-44c9 16 55 28 110 28s112-15 112-34h1z"/><path fill="#f4b844" d="M371 112v55h-1c0 19-51 34-112 34-24 1-48-2-71-7l-1 1c-11-10-25-17-39-22v-1l-1-58c3 18 52 32 111 32s113-15 113-34h1z"/><path fill="#fedb41" d="M371 113c0 19-51 34-113 34s-108-14-112-32v-2c0-19 50-34 112-34 62-1 113 15 113 34z"/><path fill="#f4b844" d="M263 324v-12l-1-47c3 18 52 32 111 32s111-15 113-33v54h-1c0 19-50 34-112 34s-101-12-110-28z"/><path fill="#e2a63b" d="M189 359c14-13 25-30 30-48h3l36 1h5v12l1 44h-6c-23 0-45-3-68-8l-1-1z"/><path fill="#f4b844" d="M263 261v3l1 48h-5l-36-1h-3a107 107 0 003-57h2l34 2 5 2-1 3z"/><path fill="#e2a63b" d="M187 194c23 5 47 8 71 7 61 0 112-15 112-34h1v62c-56 0-103 13-109 30l-4-2-33-2h-3c-5-24-17-45-36-61h1z"/><g fill="#fedb41"><path d="M223 255a114 114 0 00-110-89 112 112 0 1076 195 113 113 0 0036-83l-2-23zM486 263v1c-2 18-52 33-113 33s-108-14-111-32v-2-4c6-17 53-30 109-30h2c62 0 113 15 113 34z"/></g><path fill="#e2a63b" d="M113 264c-9 0-17-8-17-17 0-10 8-17 17-17s18 7 18 17c0 6 4 10 10 10s11-4 11-10c0-17-12-32-28-37v-4c0-6-5-10-11-10s-10 4-10 10v4a38 38 0 0010 75c10 0 18 8 18 17 0 10-8 17-18 17-9 0-17-7-17-17 0-6-5-10-10-10s-11 4-11 10c0 17 12 32 28 37v8c0 6 5 11 10 11s11-5 11-11v-8c20-6 32-27 25-48-4-15-19-27-36-27z"/></svg>