<svg xmlns="http://www.w3.org/2000/svg" viewBox="0 0 512 512"><defs/><path fill="#795548" d="M503 102v9H9v-9a94 94 0 0193-93h308a94 94 0 0193 93zm0 0"/><path fill="#4e342e" d="M503 111l-59 136H68L9 111l234-12 13-1zm0 0"/><path fill="#795548" d="M478 111l-60 136H68L9 111l234-12zm0 0"/><path fill="#802f34" d="M104 249l28-22 17 13 7 24zm0 0"/><path fill="#f57c00" d="M502 266l-15 222c0 8-8 15-17 15H42c-9 0-17-7-17-15L10 266a17 17 0 0117-19h458a17 17 0 0117 19zm0 0"/><path fill="#ff9801" d="M478 266l-15 222c-1 8-8 15-17 15H42c-9 0-17-7-17-15L10 266a17 17 0 0117-19h434a17 17 0 0117 19zm0 0"/><path fill="#fec108" d="M214 258l-9-47-14-34a260 260 0 0190-4l24 85zm0 0"/><path fill="#f44335" d="M189 220l-5 27h-41l-9-7 5-29 28-10 22 19zm0 0"/><path fill="#804537" d="M318 180v-1l1 1zm0 0"/><path fill="#607d8b" d="M273 299a17 17 0 11-34 0 17 17 0 0134 0zm0 0"/><path fill="#fec108" d="M205 247v69a51 51 0 10102 0v-69zm51 69a17 17 0 110-34 17 17 0 010 34zm0 0"/><path fill="#795548" d="M218 350H67l-3-42a9 9 0 018-9h133v17c0 12 4 25 13 34zm0 0"/><path fill="#bfa885" d="M445 350l-3 51H70l-3-51h151a51 51 0 0076 0zm0 0"/><path fill="#795548" d="M442 401l-3 43c0 5-4 8-8 8H81c-4 0-8-3-8-8l-3-43zm0 0M448 308l-3 42H294c9-9 13-22 13-34v-17h133a9 9 0 018 9zm0 0"/><path fill="#fec108" d="M154 9c-36 0-68 11-86 34-8 10-13 21-15 34l-2 17v17H9v-9a94 94 0 0193-93zm0 0"/><path fill="#ff9801" d="M503 102v9h-42V94l-2-17c-2-13-7-24-15-34-18-23-50-34-86-34h52a94 94 0 0193 93zm0 0"/><path fill="#fec108" d="M478 102v9h-17V94l-2-17c-2-13-7-24-15-34-18-23-50-34-86-34h26a94 94 0 0194 93zm0 0"/><path fill="#795548" d="M461 94v17H51V94l2-17h406l2 17zm0 0"/><path fill="#bfa885" d="M459 77H53c2-13 7-24 15-34h376c8 10 13 21 15 34zm0 0"/><path fill="#2296f3" d="M422 241l-39-23-10-42 6 4 33 20zm0 0M359 169l-41 10-39-23 41-11 33 20zm0 0"/><path fill="#00bcd4" d="M383 218l-64-38-1-1 41-10h1l13 7zm0 0"/><path fill="#3f51b5" d="M318 179v1l-13 67h-14l-10-74-2-17zm0 0"/><path fill="#2296f3" d="M383 218l-35 29h-43l13-67h1zm0 0"/><path fill="#3f51b5" d="M422 241l-16 6h-58l35-29zm0 0"/><path fill="#c52828" d="M226 207l-7 40h-35l5-27zm0 0"/><path fill="#f44335" d="M226 207l-37 13-22-19 7-39 17 15zm0 0"/><path fill="#e91e63" d="M174 162l-7 39-28 10-30-26zm0 0"/><path fill="#e91e63" d="M139 211l-5 29-22 7H98l6-31 5-31zm0 0"/><path d="M470 512H42c-14 0-25-10-26-24L1 266a26 26 0 0126-27h458a26 26 0 0126 27l-15 222c-1 14-12 24-26 24zM27 256a9 9 0 00-9 9l15 222c0 4 4 8 9 8h428c5 0 9-4 9-8l15-222a9 9 0 00-9-9zm0 0"/><path d="M431 461H81c-9 0-16-7-17-16l-9-137a17 17 0 0117-18h133a9 9 0 010 17H72l9 137h350l9-137H307a9 9 0 010-17h133a17 17 0 0117 18l-9 137c-1 9-8 16-17 16zm0 0M503 119H9c-5 0-9-3-9-8v-9C0 46 46 0 102 0h308c56 0 102 46 102 102v9c0 5-4 8-9 8zM17 102h478c0-47-38-85-85-85H102c-47 0-85 38-85 85zm0 0"/><path d="M461 119H51c-5 0-8-3-8-8V94C43 37 86 0 154 0h204c68 0 111 37 111 94v17c0 5-3 8-8 8zM60 102h392v-8c0-57-48-77-94-77H154c-46 0-94 20-94 77zm0 0M256 375c-33 0-60-26-60-59v-69c0-4 4-8 9-8h102c5 0 9 4 9 8v69c0 33-27 59-60 59zm-43-119v60a43 43 0 0086 0v-60zm0 0"/><path d="M256 324a26 26 0 110-51 26 26 0 010 51zm0-34a9 9 0 100 17 9 9 0 000-17zm0 0M455 85H57a9 9 0 110-17h398a9 9 0 110 17zm0 0M435 51H77a9 9 0 010-17h358a9 9 0 010 17zm0 0"/><path d="M256 341c-5 0-9-3-9-8v-17a9 9 0 0118 0v17c0 5-4 8-9 8zm0 0M445 358H294a9 9 0 010-17h151a9 9 0 010 17zm0 0M218 358H67a9 9 0 010-17h151a9 9 0 010 17zm0 0M442 410H70a9 9 0 010-17h372a9 9 0 010 17zm0 0M319 189l-3-1a9 9 0 014-17v1h3c4 3 6 8 4 12-2 3-5 5-8 5zm0 0M444 256l-4-1a9 9 0 01-4-11l60-136a9 9 0 0115 6l-59 137c-2 3-5 5-8 5zm0 0M191 185a9 9 0 01-2-17c31-6 62-8 93-4a9 9 0 01-2 17 261 261 0 00-89 4zm0 0M68 256c-3 0-6-2-8-5L1 114a9 9 0 0115-6l60 136a9 9 0 01-8 12zm0 0"/><path d="M422 250l-4-2-144-84a9 9 0 013-16l41-11 7 1 32 19 59 35 4 5 11 42a9 9 0 01-9 11zm-121-91l108 64-5-18-29-17-56-33zm0 0"/><path d="M348 256a9 9 0 01-6-15l32-26-9-33-9-6h-1l-39-23a9 9 0 119-15l38 23h1l13 8 4 5 11 42-3 9-36 29-5 2zm0 0"/><path d="M305 256h-2c-4-1-7-6-7-10l14-68c0-3 3-6 6-7l41-11 7 1 52 31a9 9 0 01-9 15l-49-29-33 8-12 63c-1 4-4 7-8 7zm0 0"/><path d="M291 256c-4 0-8-3-9-7l-12-92a9 9 0 0117-2l12 91a9 9 0 01-8 10zm0 0M406 256a9 9 0 01-3-16l16-7a9 9 0 017 16l-17 6-3 1zm0 0M219 256h-2c-4-1-7-5-6-10l6-36-45-38-55 19-11 58a9 9 0 11-17-3l12-63c0-3 2-5 5-6l65-23c3-1 6 0 9 2l52 44c2 2 3 5 3 8l-8 41c0 4-4 7-8 7zm0 0"/><path d="M184 256a9 9 0 01-8-10l4-23-15-12-18 6-4 19 5 5a9 9 0 01-11 13l-9-8a9 9 0 01-3-8l6-29c0-3 2-5 5-6l28-10c3-1 6-1 8 1l22 19 2 2 2 7-6 27c0 4-4 7-8 7zm0 0"/><path d="M137 220l-6-3-28-26a9 9 0 0112-12l28 26a9 9 0 01-6 15zm0 0M112 256a9 9 0 01-3-17l22-7a9 9 0 016 16l-23 8h-2zm0 0M189 229a9 9 0 01-3-17l38-13a9 9 0 015 16l-37 13-3 1zm0 0M169 208h-1a9 9 0 01-7-9l5-38a9 9 0 0117 2l-5 38c-1 4-4 7-9 7zm0 0"/></svg>