<svg xmlns="http://www.w3.org/2000/svg" viewBox="0 0 512 512"><defs/><path fill="#e95454" d="M151 221L40 432l101-10 49 90 112-211z"/><g fill="#ed6362"><path d="M164 450c3-6 0-14-7-18l-6-3a14 14 0 0113-24l18 9c6 3 13 1 16-5 4-6 2-13-4-16l-54-29c-7-3-10-11-7-18 4-7 12-10 19-6l50 27c6 3 13 0 16-5v-1c4-6 1-13-5-17l-28-15c-6-3-10-11-7-18 4-7 12-10 19-6l32 16c6 3 12 1 16-5 3-6 1-13-5-16l-33-18c-7-4-10-12-7-19s12-10 19-6l83 44-112 211-31-56c2-2 4-3 5-6z"/><path d="M360 221l112 211-101-10-49 90-112-211z"/></g><path fill="#e95454" d="M348 450c-4-6 0-14 6-18l7-3a14 14 0 00-13-24l-19 9c-5 3-12 1-15-5h-1c-3-6-1-13 5-16l54-29c7-3 10-11 7-18-4-7-12-10-19-6l-51 27c-5 3-12 0-15-5l-1-1c-3-6-1-13 5-17l29-15c6-3 9-11 6-18s-12-10-19-6l-31 16c-6 3-13 1-16-5s-1-13 5-16l33-18c7-4 10-12 7-19s-12-10-19-6l-83 44 112 211 30-56-4-6z"/><circle cx="255.9" cy="186.7" r="186.7" fill="#ffcc5b"/><path fill="#fdbc4b" d="M281 165H163c-9 0-17-7-17-16v-2c0-10 8-17 18-17h82c11 0 20-9 21-19 0-12-9-21-20-21h-87c-10 0-17-8-17-18v-1c0-9 7-17 17-17h91c11 0 20-8 21-19 0-12-9-21-20-21h-67a187 187 0 000 345h85c11 0 20-8 21-18 0-12-9-21-20-21h-96c-12 0-21-10-20-21s10-19 21-19h37a20 20 0 000-40h-57c-9 0-17-8-16-17v-1c-1-9 6-17 15-17h125c11 0 21-8 21-19 1-11-8-21-20-21z"/><path fill="#ffdb70" d="M256 320a133 133 0 110-267 133 133 0 010 267z"/><path fill="#fff" d="M389 187c0-71-56-129-125-133h-13c-8 0-15 6-16 14 0 9 7 16 15 16h74c8 0 15 7 15 16-1 8-8 15-16 15h-29a15 15 0 001 30h43c7 0 13 6 13 13v1c0 7-5 13-12 13h-96c-8 0-15 6-16 14 0 9 7 16 16 16h90c7 0 13 6 13 13l-1 1c1 7-6 13-13 13h-62c-9 0-16 6-17 15 0 8 7 16 16 16h66c7 0 13 6 13 13 0 8-6 14-13 14h-69c-9 0-16 6-16 14-1 9 6 16 15 16h18c61-12 106-66 106-130z" opacity=".2"/><path fill="#ec9922" d="M349 157h-65l-20-61c-3-8-14-8-16 0l-20 61h-65a9 9 0 00-5 16l52 38-20 62c-2 7 7 14 13 9l53-38 52 38c7 5 16-2 14-9l-20-62 52-38c7-5 3-16-5-16z"/></svg>