<svg xmlns="http://www.w3.org/2000/svg" viewBox="0 0 512 512"><defs/><path fill="#e7a52e" d="M435 85l-75-26-131 26v57l214 35 38-35c-12-22-28-41-46-57z"/><g fill="#e7a52e"><path d="M435 427l-98-18-108 18v58h54c58 0 110-22 150-57M229 370l154 23 98-23c11-17 19-37 24-57l-115-33-161 33z"/></g><path fill="#e7a52e" d="M505 199l-70-42-206 42v57l225 41 58-41c0-20-2-39-7-57z"/><path fill="#e28424" d="M480 256A229 229 0 00229 29v456h23c126 0 228-103 228-229z"/><g fill="#c85929"><path d="M435 85c-41-36-94-58-152-58h-54v58zM229 199h276c-5-20-13-40-24-57H229zM229 313h276c4-18 7-37 7-57H229zM229 427h206c18-16 34-35 46-57H229z"/></g><path fill="#b94029" d="M450 370H229v57h174c18-16 34-35 47-57zM480 256H229v57h244c5-18 7-37 7-57zM450 142H229v57h244c-5-20-13-40-23-57zM252 27l-23 2v56h174c-41-36-93-58-151-58z"/><circle cx="228.6" cy="256" r="228.6" fill="#f6e266"/><path fill="#fbf4af" d="M77 427c11 10 24 19 37 27l63-421c-15 4-30 9-44 15z"/><path fill="#eab14d" d="M229 27l-13 1a229 229 0 010 456l13 1a229 229 0 100-458z"/><circle cx="228.6" cy="256" r="184.1" fill="#e7a52e"/><path fill="#e28424" d="M229 72h-14a184 184 0 010 368h14a184 184 0 100-368z"/><path fill="#eab14d" d="M85 371c11 13 23 25 37 35l48-325c-16 6-31 13-45 23z"/><path fill="#c85929" d="M234 155l35 53 4 3 61 16c5 2 7 7 4 11l-40 50-2 4 4 64c0 5-5 8-10 6l-59-22h-5l-59 22c-5 2-10-1-9-6l3-64-2-4-40-50c-3-4-1-9 4-11l61-16 4-3 35-53c3-4 9-4 11 0z"/><path fill="#b94029" d="M334 227l-61-16-4-3-3-5c0 34-5 89-29 139l53 20c5 2 10-1 10-6l-4-64 2-4 40-50c3-4 1-9-4-11z"/></svg>