<svg xmlns="http://www.w3.org/2000/svg" viewBox="0 -26 512 512"><defs/><g fill-rule="evenodd"><path fill="#d1ddde" d="M197 210l59-72L153 13l-91-3 3 91zm0 0"/><path fill="#f9f9f9" d="M256 138l-59 72-72 87 17 21 22 17 92-76 59-49 132-109 3-91-91 3zm0 0"/><path fill="#d1ddde" d="M315 210l-59 49 93 76 21-17 17-22zm0 0"/><path fill="#ffc059" d="M370 318l-22 17-35 28 21 22 47-21 24-11 32-71-22-21-28 35zm0 0"/><path fill="#c58965" d="M416 329l-11 24-24 11 87 86 34-34zm0 0"/><path fill="#ffc059" d="M164 335l-22-17-17-21-28-36-22 21 32 71 24 11 47 21 21-22zm0 0"/><path fill="#c58965" d="M131 364l-24-11-11-24-86 87 34 34zm0 0"/></g><path d="M509 409l-81-82 18-40c2-4 1-9-2-12l-22-21a10 10 0 00-15 1l-20 26-57-70 123-102c2-2 4-5 4-8l3-91a10 10 0 00-10-10l-91 3c-3 0-6 2-8 4l-17 21a10 10 0 1015 13l15-18 61-2-111 110a10 10 0 1015 15L439 35l-2 61-128 106-59 49-87 72-14-12-12-14 67-81 60-72 34-42a10 10 0 00-15-12l-27 32L161 7c-2-2-5-4-8-4L62 0a10 10 0 00-10 10l3 91c0 3 2 6 4 8l123 102-57 70-20-26a10 10 0 00-15-1l-22 21c-3 3-4 8-2 12l18 40-81 82c-4 4-4 10 0 14l34 34a10 10 0 0014 0l82-81 40 18a10 10 0 0012-2l21-22a10 10 0 00-1-15l-26-20 77-63 77 63-26 20a10 10 0 00-1 15l21 22a10 10 0 0012 2l40-18 10 10a10 10 0 0014 0c4-4 4-11 0-15l-4-4 10-5 5-5 5-10 69 69-20 20-8-8a10 10 0 00-14 14l15 15a10 10 0 0014 0l34-34c4-4 4-10 0-14zM75 96l-2-61 110 111a10 10 0 0015 0c3-4 3-11 0-15L87 21l61 2 95 115-48 58zM44 436l-20-20 69-69 5 10 5 5 10 5zm131-63l-60-28-28-60 9-9 21 27 17 22 1 1 22 17 27 21zm97-114l42-35 61 73-12 14-14 12zm65 114l-9-9 27-21 22-17 1-1 17-22 21-27 9 9-28 60zm0 0"/><path d="M310 73a10 10 0 0014-1 10 10 0 10-14 1zm0 0M431 399a10 10 0 10-13 15 10 10 0 0013-15zm0 0"/></svg>