<svg xmlns="http://www.w3.org/2000/svg" viewBox="0 0 512 512"><defs/><g fill="#d4d2d3"><path d="M67 42H39c-9 0-15 6-15 15v401c0 7 5 12 12 12h34c6 0 12-5 12-12V57c0-9-7-15-15-15zM445 42h28c9 0 15 6 15 15v401c0 7-5 12-12 12h-34c-6 0-12-5-12-12V57c0-9 7-15 15-15z"/></g><g fill="#465059"><path d="M74 79l-48 22-26 52v81l102-63 53-92zM229 79l-127 92-58 93h80l117-75 68-110zM383 79L241 189l-43 75h81l116-79 68-106zM383 201l-30 63h80l57-30 22-49v-81z"/></g><g fill="#ffcd38"><path d="M512 185v55c0 13-11 24-24 24h-55l79-79zM512 103v1L353 264h-74L463 79h25c13 0 24 11 24 24zM383 79L198 264h-74L309 79zM229 79L44 264H24c-13 0-24-11-24-24v-6L155 79h74zM74 79L0 153v-50c0-13 11-24 24-24h50z"/></g><g fill="#bab8b9"><path d="M24 264h58v31H24zM431 264h58v31h-58z"/></g></svg>