<svg xmlns="http://www.w3.org/2000/svg" width="24" height="24" viewBox="0 0 512 512"><defs/><path fill="#00f0f5" d="M235 346h-97l-22-46-53-111 16-67 62 29 72 149z"/><path fill="#00d2d7" d="M235 346h-48l-77-158 19-23 12-14 31 65z"/><path fill="#00b2bf" d="M235 346h-40l-23-130z"/><path fill="#00b2bf" d="M235 346l-94-195-11 14 88 181z"/><path fill="#6cffff" d="M154 346L79 190l15-61-15-7-16 67 75 157z"/><path fill="#00b2bf" d="M235 346h-97l-22-46h97z"/><path fill="#00f0f5" d="M297 340l-86 16-10-56-35-198 34-60 52 45 38 213z"/><path fill="#00d2d7" d="M297 340l-43 8-2-10-39-224 24-17 15-10 24 136z"/><path fill="#00b2bf" d="M297 340l-43 8-2-10 24-115z"/><path fill="#00b2bf" d="M238 97l43 246 16-3-45-253z"/><path fill="#6cffff" d="M213 53l-31 55 43 245-14 3-45-254 34-60z"/><path fill="#00b2bf" d="M297 340l-86 16-10-56h89z"/><g><path fill="#c7cfe2" d="M332 359v140H31V358l44-44h212z"/><path fill="#afb9d2" d="M332 359v140H148v-73c0-4 1-7 3-9l45-45c2-3 6-4 9-4h41l11-54h30l45 45zM145 486v13H71v-13a37 37 0 0174 0zM68 486v13H31v-51c21 0 37 17 37 38z"/><path fill="#e4eaf6" d="M332 359v19l-50-50H81l-50 49v-19l44-44h212z"/></g><g><path fill="#00f0f5" d="M416 187l-38 181-11 53H248l12-53 42-205 72-57z"/><path fill="#00d2d7" d="M367 421l49-234-24 5-38 8-46 221z"/><path fill="#00b2bf" d="M367 421l49-234-23 5-48 229z"/><path fill="#6cffff" d="M268 421l51-243 65-52-10-20-72 57-54 258z"/><path fill="#00b2bf" d="M378 368l-11 53H248l12-53z"/></g><path fill="#e4eaf6" d="M132 499v-13c0-14-11-24-24-24s-24 10-24 24v13h48zM55 499v-13c0-14-11-24-24-24S8 472 8 486v13h47z"/><g><path fill="#c7cfe2" d="M161 499v-73l44-44h254l45 45v72z"/><path fill="#e4eaf6" d="M505 427v19l-51-50H211l-50 49v-19l44-44h254z"/></g><g><path d="M101 373c4 0 7-4 7-8v-1a7 7 0 10-15 0v1c0 4 3 8 8 8zM93 425a7 7 0 1015 0v-1a7 7 0 10-15 0v1zM81 408v-1a7 7 0 10-15 0v1a7 7 0 1015 0zM130 416a7 7 0 100-15h-13a7 7 0 100 15h13zM145 381h13a7 7 0 100-15h-13a7 7 0 100 15z"/><path d="M510 422l-45-45-6-3h-24a7 7 0 100 15h21l41 41v62H169v-63l40-40h192a7 7 0 100-15h-17l12-53a7 7 0 10-15-3l-12 56h-44l35-167 46-10-18 86a7 7 0 1015 3l20-98v-5l-43-81a7 7 0 00-11-2l-71 57-3 4-12 58-23-133-3-5-52-44a7 7 0 00-11 2l-34 59-1 5 18 106-29-61-4-4-62-28a8 8 0 00-11 5l-16 66 1 5 55 114H75c-2 0-4 1-5 3l-44 44c-2 1-2 3-2 5v15a7 7 0 1015 0v-12l39-40h184l-11 53h-46c-2 0-3 1-5 3l-44 44-2 5v66h-15v-6a31 31 0 00-62 0v6H62v-6c0-15-10-27-23-31v-48a7 7 0 10-15 0v48c-14 4-24 16-24 31v13c0 5 3 8 8 8h496c5 0 8-3 8-8v-72l-2-5zM371 117l34 65-49 10-41-29 56-46zM202 54l38 32-29 20-33-9 24-43zm8 252l-34-194 30 8 33 186h-29zm-16 0h-18l-26-53-31-64 20-24 48 98 7 43zM84 133l45 21-22 26-35 1 12-48zm-10 63l32-1 31 65 22 46h-32L74 196zm180 110l-33-189 26-17 28 159-10 47h-11zm53-130l38 28-35 170h-44l41-198zM31 492H15v-6a16 16 0 0132 0v6H31zm61 0v-6a16 16 0 0132 0v6H92z"/><path d="M395 423c-4 0-7 4-7 8v1a7 7 0 1015 0v-1c0-4-4-8-8-8zM472 453v-1a7 7 0 10-15 0v1a7 7 0 1015 0zM196 467v1a7 7 0 1015 0v-1a7 7 0 10-15 0zM248 460a7 7 0 100 15h12a7 7 0 100-15h-12zM277 437a7 7 0 100 15h12a7 7 0 100-15h-12zM361 407a7 7 0 100 15h13a7 7 0 100-15h-13zM458 212c4 0 7-3 7-8v-3a7 7 0 10-15 0v3c0 5 4 8 8 8zM458 225c-4 0-8 4-8 8v3a7 7 0 1015 0v-3c0-4-3-8-7-8zM472 226h3a7 7 0 100-15h-3a7 7 0 100 15zM440 226h3a7 7 0 100-15h-3a7 7 0 100 15zM345 64c4 0 8-4 8-8v-3a7 7 0 10-15 0v3c0 4 3 8 7 8zM345 77c-4 0-7 3-7 8v3a7 7 0 1015 0v-3c0-5-4-8-8-8zM360 78h3a7 7 0 100-15h-3a7 7 0 100 15zM328 78h3a7 7 0 100-15h-3a7 7 0 100 15zM148 23c4 0 7-3 7-7v-3a7 7 0 10-15 0v3c0 4 3 7 8 7zM148 55c4 0 7-4 7-8v-3a7 7 0 10-15 0v3c0 4 3 8 8 8zM162 37h3a7 7 0 100-15h-3a7 7 0 100 15zM130 37h3a7 7 0 100-15h-3a7 7 0 100 15zM41 233c5 0 8-3 8-7v-3a7 7 0 10-15 0v3c0 4 3 7 7 7zM41 247c-4 0-7 3-7 7v3a7 7 0 1015 0v-3c0-4-3-7-8-7zM56 247h3a7 7 0 100-15h-3a7 7 0 100 15zM24 247h3a7 7 0 100-15h-3a7 7 0 100 15zM116 76c4 0 8-3 8-7v-4a7 7 0 10-15 0v4c0 4 3 7 7 7zM116 90c-4 0-7 3-7 7v3a7 7 0 1015 0v-3c0-4-4-7-8-7zM130 90h4a7 7 0 100-15h-4a7 7 0 100 15zM99 90h3a7 7 0 100-15h-3a7 7 0 100 15z"/></g></svg>