<?xml version="1.0" encoding="iso-8859-1"?>
<!-- Generator: Adobe Illustrator 19.0.0, SVG Export Plug-In . SVG Version: 6.00 Build 0)  -->
<svg xmlns="http://www.w3.org/2000/svg" xmlns:xlink="http://www.w3.org/1999/xlink" version="1.1" id="Layer_1" x="0px" y="0px" viewBox="0 0 511.999 511.999" style="enable-background:new 0 0 511.999 511.999;" xml:space="preserve" width="24" height="24">
<g id="XMLID_572_">
	<g id="XMLID_2778_">
		<g id="XMLID_2649_">
			<g id="XMLID_1724_">
				<polygon id="XMLID_2466_" style="fill:#00F0F5;" points="235.227,346.272 138.383,346.272 116.167,300.23 62.555,189.099       78.769,122.378 141.099,151.195 213.011,300.23     "/>
				<polygon id="XMLID_2412_" style="fill:#00D2D7;" points="235.227,346.272 186.805,346.272 110.334,187.804 129.107,165.472       141.099,151.195 172.349,215.947     "/>
				<polygon id="XMLID_2385_" style="fill:#00B2BF;" points="235.227,346.272 195.144,346.272 172.349,215.947     "/>
				<polygon id="XMLID_2402_" style="fill:#00B2BF;" points="235.223,346.272 141.097,151.196 129.847,164.586 217.512,346.272           "/>
				<polygon id="XMLID_2388_" style="fill:#6CFFFF;" points="154.385,346.272 79.203,190.459 94.044,129.441 78.768,122.374       62.552,189.095 138.392,346.272     "/>
				<polygon id="XMLID_2153_" style="fill:#00B2BF;" points="235.227,346.272 138.383,346.272 116.167,300.23 213.011,300.23           "/>
			</g>
			<g id="XMLID_2196_">
				<polygon id="XMLID_2415_" style="fill:#00F0F5;" points="296.557,340.471 210.652,355.506 200.987,300.23 166.305,102.005       200.113,42.233 252.21,86.97 289.513,300.23     "/>
				<polygon id="XMLID_2393_" style="fill:#00D2D7;" points="296.567,340.471 253.599,347.988 251.852,338.007 212.632,113.797       236.785,97.425 252.21,86.97 275.941,222.601     "/>
				<polygon id="XMLID_2038_" style="fill:#00B2BF;" points="296.567,340.471 253.599,347.988 251.852,338.007 275.941,222.601           "/>
				<polygon id="XMLID_2351_" style="fill:#00B2BF;" points="237.736,96.781 280.85,343.223 296.562,340.474 252.212,86.969     "/>
				<polygon id="XMLID_2275_" style="fill:#6CFFFF;" points="212.881,53.201 181.954,107.854 224.845,353.021 210.657,355.503       166.307,101.998 200.114,42.234     "/>
				<polygon id="XMLID_2035_" style="fill:#00B2BF;" points="296.557,340.471 210.652,355.506 200.987,300.23 289.513,300.23           "/>
			</g>
			<g id="XMLID_1735_">
				<polygon id="XMLID_2514_" style="fill:#C7CFE2;" points="332.218,358.928 332.218,499.466 31.158,499.466 31.158,358.043       75.284,313.917 287.207,313.917     "/>
				<path id="XMLID_2498_" style="fill:#AFB9D2;" d="M332.218,358.928v140.538h-184.58v-73.912c0-3.359,1.327-6.57,3.696-8.939      l44.747-44.747c2.369-2.369,5.58-3.696,8.928-3.696h40.546l11.329-54.255h30.323L332.218,358.928z"/>
				<path id="XMLID_2392_" style="fill:#AFB9D2;" d="M145.353,485.515v13.951H70.672v-13.951c0-20.584,16.751-37.335,37.346-37.335      C128.602,448.18,145.353,464.932,145.353,485.515z"/>
				<path id="XMLID_2150_" style="fill:#AFB9D2;" d="M68.493,485.515v13.951H31.158V448.18      C51.742,448.18,68.493,464.932,68.493,485.515z"/>
				<polygon id="XMLID_2101_" style="fill:#E4EAF6;" points="332.217,358.93 332.217,378.292 281.532,327.606 80.948,327.606       31.157,377.397 31.157,358.045 75.283,313.919 287.207,313.919     "/>
			</g>
			<g id="XMLID_1699_">
				<polygon id="XMLID_2476_" style="fill:#00F0F5;" points="415.995,186.74 378.134,368.172 367.026,421.374 248.43,421.374       259.538,368.172 302.358,163.029 373.606,105.764     "/>
				<polygon id="XMLID_2378_" style="fill:#00D2D7;" points="367.023,421.378 415.998,186.742 391.763,192.078 353.843,200.426       307.724,421.378     "/>
				<polygon id="XMLID_2361_" style="fill:#00B2BF;" points="367.023,421.378 415.998,186.742 393.264,191.747 345.333,421.378           "/>
				<polygon id="XMLID_2350_" style="fill:#6CFFFF;" points="268.025,421.378 318.831,177.971 383.989,125.616 373.601,105.767       302.366,163.024 248.44,421.378     "/>
				<polygon id="XMLID_2292_" style="fill:#00B2BF;" points="378.134,368.172 367.026,421.374 248.43,421.374 259.538,368.172           "/>
			</g>
			<path id="XMLID_3860_" style="fill:#E4EAF6;" d="M131.666,499.466v-13.95c0-13.063-10.59-23.653-23.653-23.653h0     c-13.063,0-23.653,10.59-23.653,23.653v13.95H131.666z"/>
			<path id="XMLID_3986_" style="fill:#E4EAF6;" d="M54.806,499.466v-13.95c0-13.063-10.59-23.653-23.653-23.653h0     c-13.063,0-23.653,10.59-23.653,23.653v13.95H54.806z"/>
			<g id="XMLID_575_">
				<polygon id="XMLID_3867_" style="fill:#C7CFE2;" points="161.321,499.466 161.321,425.986 205.45,381.857 459.488,381.857       504.499,426.868 504.499,499.466     "/>
				<polygon id="XMLID_3864_" style="fill:#E4EAF6;" points="504.5,426.87 504.5,446.232 453.814,395.547 211.116,395.547       161.325,445.338 161.325,425.986 205.451,381.86 459.489,381.86     "/>
			</g>
		</g>
	</g>
	<g id="XMLID_573_">
		<path id="XMLID_574_" d="M100.525,372.724c4.143,0,7.5-3.357,7.5-7.5v-0.988c0-4.143-3.357-7.5-7.5-7.5s-7.5,3.357-7.5,7.5v0.988    C93.025,369.367,96.383,372.724,100.525,372.724z"/>
		<path id="XMLID_579_" d="M93.025,425.173c0,4.143,3.357,7.5,7.5,7.5s7.5-3.357,7.5-7.5v-0.988c0-4.143-3.357-7.5-7.5-7.5    s-7.5,3.357-7.5,7.5V425.173z"/>
		<path id="XMLID_580_" d="M80.808,408.187v-0.988c0-4.143-3.357-7.5-7.5-7.5s-7.5,3.357-7.5,7.5v0.988c0,4.143,3.357,7.5,7.5,7.5    S80.808,412.33,80.808,408.187z"/>
		<path id="XMLID_582_" d="M129.987,415.687c4.143,0,7.5-3.357,7.5-7.5s-3.357-7.5-7.5-7.5h-12.635c-4.143,0-7.5,3.357-7.5,7.5    s3.357,7.5,7.5,7.5H129.987z"/>
		<path id="XMLID_584_" d="M145.107,380.934h12.635c4.143,0,7.5-3.357,7.5-7.5s-3.357-7.5-7.5-7.5h-12.635    c-4.143,0-7.5,3.357-7.5,7.5S140.965,380.934,145.107,380.934z"/>
		<path id="XMLID_585_" d="M509.803,421.565l-45.012-45.012c-1.407-1.406-3.314-2.196-5.304-2.196h-24.398    c-4.143,0-7.5,3.357-7.5,7.5s3.357,7.5,7.5,7.5h21.292l40.618,40.618v61.991H168.82v-62.874l39.735-39.735h192.355    c4.143,0,7.5-3.357,7.5-7.5s-3.357-7.5-7.5-7.5h-16.413l11.216-53.736c0.847-4.055-1.755-8.027-5.81-8.874    c-4.055-0.844-8.028,1.755-8.874,5.81l-11.856,56.801h-44.114c12.113-59.292,23.26-113.407,35.089-167.638l46.135-10.156    l-18.121,86.816c-0.847,4.055,1.755,8.027,5.81,8.874c4.052,0.84,8.028-1.755,8.874-5.81l20.489-98.165    c0.347-1.676,0.096-3.494-0.697-5.011l-42.391-80.979c-1.04-1.987-2.916-3.405-5.112-3.863c-2.196-0.461-4.482,0.09-6.23,1.496    l-71.246,57.259c-1.343,1.081-2.277,2.632-2.644,4.313l-12.052,57.743L259.6,85.679c-0.301-1.686-1.201-3.279-2.501-4.396    l-52.096-44.738c-1.702-1.462-3.967-2.085-6.18-1.698c-2.209,0.387-4.13,1.742-5.234,3.694l-33.813,59.768    c-0.842,1.488-1.158,3.301-0.86,4.985l18.547,106.014l-29.61-61.367c-0.739-1.539-2.057-2.834-3.606-3.549L81.92,115.565    c-2.036-0.941-4.389-0.921-6.407,0.053c-2.021,0.975-3.499,2.803-4.029,4.983l-16.222,66.726c-0.404,1.668-0.205,3.482,0.533,5.03    l55.034,114.06H75.282c-1.989,0-3.896,0.79-5.304,2.196L25.85,352.742c-1.406,1.407-2.196,3.314-2.196,5.304v14.865    c0,4.143,3.357,7.5,7.5,7.5s7.5-3.357,7.5-7.5v-11.759l39.735-39.735h183.249l-11.05,52.94h-45.138    c-1.989,0-3.896,0.79-5.304,2.196l-44.129,44.129c-1.406,1.407-2.196,3.314-2.196,5.304v65.98h-14.654v-6.45    c0-17.178-13.976-31.152-31.153-31.152S76.86,468.338,76.86,485.516v6.45H62.306v-6.45c0-14.592-10.086-26.868-23.652-30.234    v-48.194c0-4.143-3.357-7.5-7.5-7.5s-7.5,3.357-7.5,7.5v48.194C10.087,458.649,0,470.924,0,485.516v13.95    c0,4.143,3.357,7.5,7.5,7.5h496.999c4.143,0,7.5-3.357,7.5-7.5v-72.598C511.999,424.879,511.209,422.972,509.803,421.565z     M371.192,117.329l33.609,64.202l-49.275,10.847l-40.819-29.653L371.192,117.329z M202.151,53.868l37.73,32.402l-28.663,19.427    l-33.556-8.542L202.151,53.868z M209.679,306.417l-33.99-194.286l30.395,7.737l32.636,186.549H209.679z M194.452,306.417h-18.508    c-8.498-17.653-17.182-35.59-25.591-52.96c-10.259-21.192-20.841-43.053-31.154-64.535l20.183-24.021l47.122,97.66    c0.122,0.252,0.258,0.492,0.403,0.725L194.452,306.417z M83.904,133.009l45.139,20.878l-22.275,26.51l-34.613,0.938    L83.904,133.009z M74.343,196.281l31.341-0.849c10.32,21.497,20.906,43.364,31.167,64.561    c7.374,15.231,14.959,30.899,22.443,46.424h-31.811L74.343,196.281z M253.948,306.417L220.86,117.282l25.962-17.596    l27.859,159.241l-9.913,47.49H253.948z M307.332,175.909l38.143,27.708c-12.042,55.2-23.37,110.252-35.723,170.74h-43.841    L307.332,175.909z M31.153,491.966H15v-6.45c0-8.906,7.246-16.152,16.153-16.152c8.906,0,16.152,7.246,16.152,16.152v6.45H31.153z     M91.86,491.966v-6.45c0-8.906,7.246-16.152,16.152-16.152c8.907,0,16.153,7.246,16.153,16.152v6.45H91.86z"/>
		<path id="XMLID_597_" d="M395.099,423.359c-4.143,0-7.5,3.357-7.5,7.5v0.988c0,4.143,3.357,7.5,7.5,7.5s7.5-3.357,7.5-7.5v-0.988    C402.599,426.716,399.241,423.359,395.099,423.359z"/>
		<path id="XMLID_598_" d="M472.086,453.25v-0.987c0-4.143-3.357-7.5-7.5-7.5s-7.5,3.357-7.5,7.5v0.987c0,4.143,3.357,7.5,7.5,7.5    S472.086,457.392,472.086,453.25z"/>
		<path id="XMLID_599_" d="M195.976,466.716v0.988c0,4.143,3.357,7.5,7.5,7.5s7.5-3.357,7.5-7.5v-0.988c0-4.143-3.357-7.5-7.5-7.5    S195.976,462.574,195.976,466.716z"/>
		<path id="XMLID_600_" d="M247.521,460.205c-4.143,0-7.5,3.357-7.5,7.5s3.357,7.5,7.5,7.5h12.635c4.143,0,7.5-3.357,7.5-7.5    s-3.357-7.5-7.5-7.5H247.521z"/>
		<path id="XMLID_601_" d="M276.68,437.216c-4.143,0-7.5,3.357-7.5,7.5s3.357,7.5,7.5,7.5h12.634c4.143,0,7.5-3.357,7.5-7.5    s-3.357-7.5-7.5-7.5H276.68z"/>
		<path id="XMLID_602_" d="M361.407,406.546c-4.143,0-7.5,3.357-7.5,7.5s3.357,7.5,7.5,7.5h12.634c4.143,0,7.5-3.357,7.5-7.5    s-3.357-7.5-7.5-7.5H361.407z"/>
		<path id="XMLID_603_" d="M457.656,211.973c4.143,0,7.5-3.357,7.5-7.5v-3.133c0-4.143-3.357-7.5-7.5-7.5s-7.5,3.357-7.5,7.5v3.133    C450.156,208.616,453.514,211.973,457.656,211.973z"/>
		<path id="XMLID_604_" d="M457.656,225.395c-4.143,0-7.5,3.357-7.5,7.5v3.133c0,4.143,3.357,7.5,7.5,7.5s7.5-3.357,7.5-7.5v-3.133    C465.156,228.752,461.799,225.395,457.656,225.395z"/>
		<path id="XMLID_605_" d="M471.867,226.184H475c4.143,0,7.5-3.357,7.5-7.5s-3.357-7.5-7.5-7.5h-3.133c-4.143,0-7.5,3.357-7.5,7.5    S467.725,226.184,471.867,226.184z"/>
		<path id="XMLID_606_" d="M440.313,226.184h3.133c4.143,0,7.5-3.357,7.5-7.5s-3.357-7.5-7.5-7.5h-3.133c-4.143,0-7.5,3.357-7.5,7.5    S436.17,226.184,440.313,226.184z"/>
		<path id="XMLID_607_" d="M345.333,63.688c4.143,0,7.5-3.357,7.5-7.5v-3.132c0-4.143-3.357-7.5-7.5-7.5s-7.5,3.357-7.5,7.5v3.132    C337.833,60.331,341.19,63.688,345.333,63.688z"/>
		<path id="XMLID_608_" d="M345.333,77.111c-4.143,0-7.5,3.357-7.5,7.5v3.133c0,4.143,3.357,7.5,7.5,7.5s7.5-3.357,7.5-7.5v-3.133    C352.833,80.468,349.476,77.111,345.333,77.111z"/>
		<path id="XMLID_609_" d="M359.545,77.9h3.133c4.143,0,7.5-3.357,7.5-7.5s-3.357-7.5-7.5-7.5h-3.133c-4.143,0-7.5,3.357-7.5,7.5    S355.402,77.9,359.545,77.9z"/>
		<path id="XMLID_610_" d="M327.989,77.9h3.133c4.143,0,7.5-3.357,7.5-7.5s-3.357-7.5-7.5-7.5h-3.133c-4.143,0-7.5,3.357-7.5,7.5    S323.847,77.9,327.989,77.9z"/>
		<path id="XMLID_611_" d="M147.638,23.166c4.143,0,7.5-3.357,7.5-7.5v-3.133c0-4.143-3.357-7.5-7.5-7.5s-7.5,3.357-7.5,7.5v3.133    C140.138,19.808,143.495,23.166,147.638,23.166z"/>
		<path id="XMLID_612_" d="M147.638,54.72c4.143,0,7.5-3.357,7.5-7.5v-3.132c0-4.143-3.357-7.5-7.5-7.5s-7.5,3.357-7.5,7.5v3.132    C140.138,51.363,143.495,54.72,147.638,54.72z"/>
		<path id="XMLID_613_" d="M161.849,37.376h3.133c4.143,0,7.5-3.357,7.5-7.5s-3.357-7.5-7.5-7.5h-3.133c-4.143,0-7.5,3.357-7.5,7.5    S157.706,37.376,161.849,37.376z"/>
		<path id="XMLID_614_" d="M130.294,37.376h3.133c4.143,0,7.5-3.357,7.5-7.5s-3.357-7.5-7.5-7.5h-3.133c-4.143,0-7.5,3.357-7.5,7.5    S126.151,37.376,130.294,37.376z"/>
		<path id="XMLID_615_" d="M41.455,233.187c4.143,0,7.5-3.357,7.5-7.5v-3.133c0-4.143-3.357-7.5-7.5-7.5s-7.5,3.357-7.5,7.5v3.133    C33.955,229.83,37.313,233.187,41.455,233.187z"/>
		<path id="XMLID_616_" d="M41.455,246.609c-4.143,0-7.5,3.357-7.5,7.5v3.133c0,4.143,3.357,7.5,7.5,7.5s7.5-3.357,7.5-7.5v-3.133    C48.955,249.966,45.598,246.609,41.455,246.609z"/>
		<path id="XMLID_617_" d="M55.667,247.398H58.8c4.143,0,7.5-3.357,7.5-7.5s-3.357-7.5-7.5-7.5h-3.133c-4.143,0-7.5,3.357-7.5,7.5    S51.524,247.398,55.667,247.398z"/>
		<path id="XMLID_618_" d="M24.111,247.398h3.133c4.143,0,7.5-3.357,7.5-7.5s-3.357-7.5-7.5-7.5h-3.133c-4.143,0-7.5,3.357-7.5,7.5    S19.969,247.398,24.111,247.398z"/>
		<path id="XMLID_619_" d="M116.167,76.103c4.143,0,7.5-3.357,7.5-7.5V65.47c0-4.143-3.357-7.5-7.5-7.5s-7.5,3.357-7.5,7.5v3.133    C108.667,72.746,112.024,76.103,116.167,76.103z"/>
		<path id="XMLID_620_" d="M116.167,89.525c-4.143,0-7.5,3.357-7.5,7.5v3.133c0,4.143,3.357,7.5,7.5,7.5s7.5-3.357,7.5-7.5v-3.133    C123.667,92.882,120.31,89.525,116.167,89.525z"/>
		<path id="XMLID_623_" d="M130.378,90.314h3.133c4.143,0,7.5-3.357,7.5-7.5s-3.357-7.5-7.5-7.5h-3.133c-4.143,0-7.5,3.357-7.5,7.5    S126.235,90.314,130.378,90.314z"/>
		<path id="XMLID_624_" d="M98.823,90.314h3.133c4.143,0,7.5-3.357,7.5-7.5s-3.357-7.5-7.5-7.5h-3.133c-4.143,0-7.5,3.357-7.5,7.5    S94.681,90.314,98.823,90.314z"/>
	</g>
</g>















</svg>
