<svg xmlns="http://www.w3.org/2000/svg" xmlns:xlink="http://www.w3.org/1999/xlink" style="margin:auto;background:#ffffff;display:block;z-index:1;position:relative" width="1920" height="969" preserveAspectRatio="xMidYMid" viewBox="0 0 1920 969">
<g transform=""><linearGradient id="lg-0.517981910342425" x1="0" x2="1" y1="0" y2="0">
  <stop stop-color="#ff00ff" offset="0"></stop>
  <stop stop-color="#00ffff" offset="1"></stop>
</linearGradient><path d="M 1576 485 C 1576 645 1240 824 1087 874 C 934 924 590 952 496 822 C 402 692 458 318 552 188 C 646 58 922 81 1075 131 C 1228 181 1576 325 1576 485" fill="url(#lg-0.517981910342425)" opacity="0.4">
  <animate attributeName="d" dur="10s" repeatCount="indefinite" keyTimes="0;0.3333333333333333;0.6666666666666666;1" calcmod="spline" keySplines="0.3 0.1 0.7 0.9;0.3 0.1 0.7 0.9;0.3 0.1 0.7 0.9" begin="-4s" values="M 1576 485 C 1576 645 1240 824 1087 874 C 934 924 590 952 496 822 C 402 692 458 318 552 188 C 646 58 922 81 1075 131 C 1228 181 1576 325 1576 485;M 1612 485 C 1612 667 1272 857 1099 913 C 926 969 539 1015 432 868 C 325 721 336 256 443 109 C 550 -38 944 -54 1117 2 C 1290 58 1612 303 1612 485;M 1565 485 C 1565 652 1258 860 1099 912 C 940 964 607 947 509 812 C 411 677 423 301 521 166 C 619 31 953 -36 1112 16 C 1271 68 1565 318 1565 485;M 1576 485 C 1576 645 1240 824 1087 874 C 934 924 590 952 496 822 C 402 692 458 318 552 188 C 646 58 922 81 1075 131 C 1228 181 1576 325 1576 485"></animate>
</path><path d="M 1625 485 C 1625 654 1244 815 1084 867 C 924 919 563 981 464 845 C 365 709 431 308 530 172 C 629 36 942 -9 1103 43 C 1264 95 1625 316 1625 485" fill="url(#lg-0.517981910342425)" opacity="0.4">
  <animate attributeName="d" dur="10s" repeatCount="indefinite" keyTimes="0;0.3333333333333333;0.6666666666666666;1" calcmod="spline" keySplines="0.3 0.1 0.7 0.9;0.3 0.1 0.7 0.9;0.3 0.1 0.7 0.9" begin="-4s" values="M 1625 485 C 1625 654 1244 815 1084 867 C 924 919 563 981 464 845 C 365 709 431 308 530 172 C 629 36 942 -9 1103 43 C 1264 95 1625 316 1625 485;M 1570 485 C 1570 639 1226 804 1079 852 C 932 900 640 908 549 783 C 458 658 481 328 572 203 C 663 78 943 35 1090 83 C 1237 131 1570 331 1570 485;M 1622 485 C 1622 660 1255 824 1088 878 C 921 932 658 921 555 779 C 452 637 377 278 480 136 C 583 -6 937 -12 1104 42 C 1271 96 1622 310 1622 485;M 1625 485 C 1625 654 1244 815 1084 867 C 924 919 563 981 464 845 C 365 709 431 308 530 172 C 629 36 942 -9 1103 43 C 1264 95 1625 316 1625 485"></animate>
</path><path d="M 1527 485 C 1527 645 1238 825 1086 874 C 934 923 606 939 512 810 C 418 681 425 293 519 164 C 613 35 959 -29 1111 20 C 1263 69 1527 325 1527 485" fill="url(#lg-0.517981910342425)" opacity="0.4">
  <animate attributeName="d" dur="10s" repeatCount="indefinite" keyTimes="0;0.3333333333333333;0.6666666666666666;1" calcmod="spline" keySplines="0.3 0.1 0.7 0.9;0.3 0.1 0.7 0.9;0.3 0.1 0.7 0.9" begin="-4s" values="M 1527 485 C 1527 645 1238 825 1086 874 C 934 923 606 939 512 810 C 418 681 425 293 519 164 C 613 35 959 -29 1111 20 C 1263 69 1527 325 1527 485;M 1567 485 C 1567 660 1256 830 1090 884 C 924 938 605 959 502 817 C 399 675 421 309 524 167 C 627 25 926 21 1093 75 C 1260 129 1567 310 1567 485;M 1638 485 C 1638 666 1261 826 1089 882 C 917 938 613 960 507 814 C 401 668 432 324 538 178 C 644 32 929 -5 1101 51 C 1273 107 1638 304 1638 485;M 1527 485 C 1527 645 1238 825 1086 874 C 934 923 606 939 512 810 C 418 681 425 293 519 164 C 613 35 959 -29 1111 20 C 1263 69 1527 325 1527 485"></animate>
</path><path d="M 1517 485 C 1517 639 1211 761 1065 808 C 919 855 608 931 517 807 C 426 683 447 301 537 177 C 627 53 959 -9 1105 39 C 1251 87 1517 331 1517 485" fill="url(#lg-0.517981910342425)" opacity="0.4">
  <animate attributeName="d" dur="10s" repeatCount="indefinite" keyTimes="0;0.3333333333333333;0.6666666666666666;1" calcmod="spline" keySplines="0.3 0.1 0.7 0.9;0.3 0.1 0.7 0.9;0.3 0.1 0.7 0.9" begin="-4s" values="M 1517 485 C 1517 639 1211 761 1065 808 C 919 855 608 931 517 807 C 426 683 447 301 537 177 C 627 53 959 -9 1105 39 C 1251 87 1517 331 1517 485;M 1513 485 C 1513 651 1240 807 1082 859 C 924 911 674 898 576 763 C 478 628 390 277 488 142 C 586 7 949 -19 1107 32 C 1265 83 1513 319 1513 485;M 1653 485 C 1653 665 1278 876 1106 932 C 934 988 608 963 502 817 C 396 671 372 281 478 135 C 584 -11 925 8 1097 64 C 1269 120 1653 305 1653 485;M 1517 485 C 1517 639 1211 761 1065 808 C 919 855 608 931 517 807 C 426 683 447 301 537 177 C 627 53 959 -9 1105 39 C 1251 87 1517 331 1517 485"></animate>
</path><path d="M 1557 485 C 1557 638 1224 804 1079 851 C 934 898 677 880 587 756 C 497 632 485 329 575 205 C 665 81 951 20 1096 67 C 1241 114 1557 332 1557 485" fill="url(#lg-0.517981910342425)" opacity="0.4">
  <animate attributeName="d" dur="10s" repeatCount="indefinite" keyTimes="0;0.3333333333333333;0.6666666666666666;1" calcmod="spline" keySplines="0.3 0.1 0.7 0.9;0.3 0.1 0.7 0.9;0.3 0.1 0.7 0.9" begin="-4s" values="M 1557 485 C 1557 638 1224 804 1079 851 C 934 898 677 880 587 756 C 497 632 485 329 575 205 C 665 81 951 20 1096 67 C 1241 114 1557 332 1557 485;M 1545 485 C 1545 669 1269 840 1094 897 C 919 954 588 983 480 834 C 372 685 342 263 450 114 C 558 -35 944 -62 1119 -5 C 1294 52 1545 301 1545 485;M 1607 485 C 1607 667 1259 815 1086 871 C 913 927 580 985 473 838 C 366 691 336 256 443 109 C 550 -38 934 -23 1107 33 C 1280 89 1607 303 1607 485;M 1557 485 C 1557 638 1224 804 1079 851 C 934 898 677 880 587 756 C 497 632 485 329 575 205 C 665 81 951 20 1096 67 C 1241 114 1557 332 1557 485"></animate>
</path></g>
</svg>