<svg height="24" viewBox="0 0 128 128" width="24" xmlns="http://www.w3.org/2000/svg"><g><g><path d="m1.75 66.658h124.5a0 0 0 0 1 0 0v48.762a5 5 0 0 1 -5 5h-114.5a5 5 0 0 1 -5-5v-48.762a0 0 0 0 1 0 0z" fill="#c6715a"/><path d="m50.9 66.66h26.2a0 0 0 0 1 0 0v20.2a6 6 0 0 1 -6 6h-14.2a6 6 0 0 1 -6-6v-20.2a0 0 0 0 1 0 0z" fill="#756f6f"/><path d="m60.9 76.66h6.199v6.199h-6.199z" fill="#dccfca"/><path d="m77.1 76.658v10.2a6 6 0 0 1 -6 6h-14.2a6 6 0 0 1 -6-6v-10.2h-39.15v33.762h104.5v-33.762z" fill="#fcc16d"/><path d="m106.242 89.662h-19.135a1.75 1.75 0 0 1 0-3.5h19.135a1.75 1.75 0 0 1 0 3.5z" fill="#fc7d4b"/><path d="m40.985 89.662h-19.227a1.75 1.75 0 1 1 0-3.5h19.227a1.75 1.75 0 0 1 0 3.5z" fill="#fc7d4b"/><path d="m106.242 100.916h-84.484a1.75 1.75 0 1 1 0-3.5h84.484a1.75 1.75 0 1 1 0 3.5z" fill="#fc7d4b"/><g fill="#fcc16d"><path d="m6.133 66.658h38.578l-6.202-11.575h-26.173z"/><path d="m83.289 66.658h-38.578l6.202-11.575h26.174z"/><path d="m121.866 66.658h-38.577l6.202-11.575h26.173z"/></g><path d="m64 55.082h-38.578l6.202-11.575h26.174z" fill="#e8a34f"/><path d="m102.578 55.082h-38.578l6.202-11.575h26.173z" fill="#e8a34f"/><path d="m83.289 43.506h-38.578l6.202-11.575h26.174z" fill="#fcc16d"/><path d="m101.354 21.888 5.555-10.157 5.555 10.157 10.158 5.555-10.158 5.556-5.555 10.157-5.555-10.157-10.158-5.556z" fill="#fc7d4b"/><path d="m30.2 15.161 4.146-7.581 4.146 7.581 7.581 4.146-7.581 4.146-4.146 7.58-4.146-7.58-7.581-4.146z" fill="#fc7d4b"/></g><g fill="#2e1700"><path d="m126.25 64.908h-3.336l-5.708-10.652a1.749 1.749 0 0 0 -1.542-.923h-12.038l-5.708-10.653a1.752 1.752 0 0 0 -1.543-.923h-12.038l-5.708-10.652a1.751 1.751 0 0 0 -1.543-.924h-26.172a1.751 1.751 0 0 0 -1.543.924l-5.708 10.652h-12.039a1.75 1.75 0 0 0 -1.542.923l-5.708 10.653h-12.038a1.752 1.752 0 0 0 -1.543.923l-5.707 10.652h-3.336a1.751 1.751 0 0 0 -1.75 1.75v48.762a6.758 6.758 0 0 0 6.75 6.75h114.5a6.758 6.758 0 0 0 6.75-6.75v-48.762a1.751 1.751 0 0 0 -1.75-1.75zm-7.307 0h-32.731l4.327-8.075h24.077zm-66.293 11.75v-8.248h22.7v18.449a4.255 4.255 0 0 1 -4.25 4.25h-14.2a4.255 4.255 0 0 1 -4.25-4.25zm-5.016-11.75 4.327-8.075h24.078l4.327 8.075zm-2.923-1.955-3.28-6.121h6.56zm35.3-6.121h6.56l-3.28 6.121zm19.646-3.5h-32.734l4.327-8.075h24.078zm-35.657-1.955-3.28-6.121h6.56zm-12.039-17.7h24.078l4.327 8.075h-32.732zm-19.289 11.58h24.078l4.327 8.075h-32.732zm-19.288 11.576h24.077l4.327 8.075h-32.731zm111.116 58.587a3.254 3.254 0 0 1 -3.25 3.25h-114.5a3.254 3.254 0 0 1 -3.25-3.25v-47.012h45.65v6.5h-37.4a1.75 1.75 0 0 0 -1.75 1.75v33.762a1.751 1.751 0 0 0 1.75 1.75h65.35a1.75 1.75 0 0 0 0-3.5h-63.6v-30.262h35.65v8.451a7.759 7.759 0 0 0 7.75 7.75h14.2a7.759 7.759 0 0 0 7.75-7.75v-8.451h35.65v30.262h-6.508a1.75 1.75 0 0 0 0 3.5h8.258a1.751 1.751 0 0 0 1.75-1.75v-33.762a1.75 1.75 0 0 0 -1.75-1.75h-37.4v-6.5h45.65z"/><path d="m60.9 84.609h6.2a1.751 1.751 0 0 0 1.75-1.75v-6.2a1.75 1.75 0 0 0 -1.75-1.75h-6.2a1.75 1.75 0 0 0 -1.75 1.75v6.2a1.751 1.751 0 0 0 1.75 1.75zm1.75-6.2h2.7v2.7h-2.7z"/><path d="m94.187 108.67h-3.287a1.75 1.75 0 0 0 0 3.5h3.283a1.75 1.75 0 0 0 0-3.5z"/><path d="m87.107 89.662h19.135a1.75 1.75 0 0 0 0-3.5h-19.135a1.75 1.75 0 0 0 0 3.5z"/><path d="m21.758 89.662h19.227a1.75 1.75 0 0 0 0-3.5h-19.227a1.75 1.75 0 1 0 0 3.5z"/><path d="m107.992 99.166a1.751 1.751 0 0 0 -1.75-1.75h-84.484a1.75 1.75 0 1 0 0 3.5h84.484a1.751 1.751 0 0 0 1.75-1.75z"/><path d="m90.356 28.979 9.708 5.309 5.31 9.712a1.75 1.75 0 0 0 3.07 0l5.31-9.708 9.707-5.309a1.75 1.75 0 0 0 0-3.071l-9.707-5.312-5.31-9.708a1.75 1.75 0 0 0 -3.07 1.68l5.555 10.157a1.747 1.747 0 0 0 .695.695l7.351 4.02-7.351 4.02a1.743 1.743 0 0 0 -.695.7l-4.02 7.35-4.02-7.35a1.746 1.746 0 0 0 -.7-.7l-7.35-4.02 7.35-4.02a1.75 1.75 0 1 0 -1.679-3.07l-10.154 5.554a1.75 1.75 0 0 0 0 3.071z"/><path d="m21.779 20.842 7.132 3.9 3.9 7.131a1.75 1.75 0 0 0 3.07 0l3.9-7.131 7.131-3.9a1.75 1.75 0 0 0 0-3.071l-7.131-3.9-3.9-7.131a1.75 1.75 0 0 0 -3.07 0l-3.9 7.131-7.132 3.9a1.75 1.75 0 0 0 0 3.071zm9.261-4.142a1.747 1.747 0 0 0 .7-.7l2.611-4.774 2.606 4.774a1.747 1.747 0 0 0 .7.7l4.774 2.611-4.774 2.61a1.75 1.75 0 0 0 -.7.7l-2.611 4.773-2.611-4.773a1.75 1.75 0 0 0 -.7-.7l-4.774-2.61z"/></g></g></svg>