<svg height="24" viewBox="0 -26 512.00025 512" width="24" xmlns="http://www.w3.org/2000/svg"><g fill-rule="evenodd"><path d="m196.515625 209.621094 59.484375-71.898438-102.875-124.339844-91.125-3.378906 3.382812 91.121094zm0 0" fill="#d1ddde"/><path d="m256 137.722656-59.484375 71.898438-71.882813 86.878906 17.003907 21.863281 21.863281 17.007813 92.5-76.53125 59.484375-49.21875 131.132813-108.496094 3.382812-91.121094-91.125 3.378906zm0 0" fill="#f9f9f9"/><path d="m315.484375 209.621094-59.484375 49.21875 92.5 76.53125 21.863281-17.007813 17.003907-21.863281zm0 0" fill="#d1ddde"/><path d="m370.363281 318.363281-21.863281 17.007813-35.808594 27.851562 21.785156 21.785156 46.996094-21.359374 23.496094-10.679688 32.039062-70.488281-21.789062-21.789063-27.851562 35.808594zm0 0" fill="#ffc059"/><path d="m415.648438 329.472656-10.679688 23.496094-23.496094 10.679688 86.351563 86.351562 34.175781-34.175781zm0 0" fill="#c58965"/><path d="m163.5 335.371094-21.863281-17.007813-17.003907-21.863281-27.851562-35.808594-21.789062 21.789063 32.039062 70.488281 23.5 10.679688 46.992188 21.359374 21.785156-21.785156zm0 0" fill="#ffc059"/><path d="m130.53125 363.648438-23.5-10.679688-10.679688-23.496094-86.351562 86.351563 34.175781 34.175781zm0 0" fill="#c58965"/></g><path d="m509.070312 408.753906-81.453124-81.453125 18.496093-40.683593c1.722657-3.796876.914063-8.261719-2.035156-11.210938l-21.785156-21.785156c-2.027344-2.027344-4.828125-3.089844-7.691407-2.910156-2.863281.179687-5.511718 1.578124-7.273437 3.839843l-20.199219 25.972657-57.5625-69.574219 123.429688-102.121094c2.195312-1.816406 3.511718-4.484375 3.617187-7.332031l3.382813-91.125c.101562-2.777344-.957032-5.472656-2.921875-7.441406-1.96875-1.964844-4.65625-3.035157-7.441407-2.9218755l-91.125 3.3828125c-2.847656.105469-5.515624 1.421875-7.332031 3.617187l-17.332031 20.945313c-3.519531 4.253906-2.925781 10.558594 1.332031 14.078125 4.253907 3.523438 10.558594 2.925781 14.078125-1.328125l14.472656-17.492187 61.195313-2.273438-110.46875 110.472656c-3.90625 3.902344-3.90625 10.234375 0 14.140625 1.953125 1.953125 4.511719 2.929688 7.070313 2.929688 2.558593 0 5.117187-.976563 7.070312-2.929688l110.46875-110.46875-2.269531 61.191407-127.671875 105.636718c-.003906.003906-.007813.003906-.011719.007813 0 0-.003906.003906-.007813.007812l-59.355468 49.105469c-.007813.007812-.015625.015625-.023438.023438l-86.414062 71.496093-14.546875-11.3125-11.3125-14.542969 66.765625-80.695312s.003906 0 .003906-.003906c0 0 0-.003906.003906-.003906l59.5625-71.988282c.007813-.007812.011719-.015625.019532-.023437l34.449218-41.636719c3.519532-4.253906 2.921875-10.558594-1.332031-14.078125-4.253906-3.523437-10.558594-2.925781-14.078125 1.328125l-26.84375 32.445312-95.171875-115.03125c-1.816406-2.195312-4.484375-3.511718-7.332031-3.617187l-91.125-3.3828125c-2.769532-.1015625-5.472656.9570315-7.441406 2.9218755-1.964844 1.96875-3.023438 4.664062-2.921876 7.445312l3.378907 91.121094c.105469 2.847656 1.425781 5.515625 3.621093 7.335937l123.425782 102.117188-57.5625 69.574219-20.199219-25.972657c-1.757813-2.261719-4.40625-3.660156-7.269531-3.839843-2.863282-.179688-5.664063.878906-7.695313 2.910156l-21.785156 21.785156c-2.949219 2.949219-3.757813 7.417969-2.035156 11.210938l18.496093 40.683593-81.453124 81.453125c-3.90625 3.90625-3.90625 10.238282 0 14.140625l34.175781 34.179688c1.875 1.875 4.417969 2.929687 7.070312 2.929687 2.652344 0 5.195313-1.054687 7.070313-2.929687l81.453125-81.453125 40.6875 18.492187c1.324219.601563 2.734375.894531 4.132812.894531 2.597657 0 5.15625-1.011718 7.074219-2.925781l21.789062-21.789062c2.027344-2.027344 3.085938-4.828125 2.910157-7.691407-.179688-2.863281-1.578125-5.511718-3.84375-7.273437l-25.972657-20.199219 76.523438-63.3125 76.519531 63.3125-25.96875 20.199219c-2.265625 1.761719-3.664062 4.410156-3.84375 7.273437-.179687 2.859376.882813 5.664063 2.910157 7.691407l21.785156 21.785156c1.917968 1.917969 4.476562 2.929687 7.074218 2.929687 1.398438 0 2.808594-.292968 4.136719-.894531l40.6875-18.496093 9.992188 9.996093c1.953125 1.953125 4.511719 2.929688 7.070312 2.929688 2.558594 0 5.117188-.976563 7.070313-2.929688 3.90625-3.90625 3.90625-10.238281 0-14.140625l-4.691406-4.691406 10.359374-4.707031c2.203126-1 3.96875-2.765625 4.96875-4.96875l4.707032-10.359375 69.078125 69.078125-20.035157 20.035156-7.816406-7.820313c-3.90625-3.902343-10.234375-3.902343-14.144531 0-3.902344 3.90625-3.902344 10.238282 0 14.144532l14.890625 14.890625c1.875 1.875 4.417969 2.929687 7.070312 2.929687 2.652344 0 5.195313-1.054687 7.074219-2.929687l34.175781-34.179688c3.90625-3.902343 3.90625-10.234375 0-14.140625zm-433.859374-312.476562-2.273438-61.195313 110.472656 110.46875c1.953125 1.953125 4.511719 2.929688 7.070313 2.929688 2.558593 0 5.117187-.976563 7.070312-2.929688 3.90625-3.902343 3.90625-10.234375 0-14.140625l-110.46875-110.46875 61.195313 2.269532 94.742187 114.511718-47.835937 57.820313zm-31.035157 339.582031-20.035156-20.035156 69.078125-69.078125 4.710938 10.359375c1 2.203125 2.761718 3.964843 4.964843 4.96875l10.359375 4.707031zm131.175781-62.820313-60.765624-27.621093-27.621094-60.769531 8.875-8.875 20.984375 26.976562c.003906.007812.007812.011719.015625.019531l16.902344 21.734375c.511718.65625 1.101562 1.242188 1.753906 1.753906l21.910156 17.039063c.015625.011719.03125.023437.046875.035156l26.777344 20.828125zm96.335938-114.199218 42.46875-35.140625 60.394531 72.996093-11.3125 14.542969-14.546875 11.3125zm64.960938 114.199218-8.878907-8.878906 26.777344-20.824218c.015625-.011719.035156-.027344.050781-.042969l21.90625-17.035157c.652344-.507812 1.242188-1.097656 1.753906-1.753906l16.894532-21.726562c.011718-.011719.027344-.03125.039062-.042969l20.96875-26.960937 8.875 8.875-27.621094 60.769531zm0 0"/><path d="m309.644531 72.832031c1.867188 1.558594 4.136719 2.320313 6.394531 2.320313 2.863282 0 5.710938-1.226563 7.6875-3.597656l.007813-.007813c3.535156-4.242187 2.957031-10.542969-1.285156-14.082031-4.242188-3.535156-10.550781-2.957032-14.085938 1.285156-3.535156 4.242188-2.960937 10.546875 1.28125 14.082031zm0 0"/><path d="m431.054688 399.148438-.007813-.003907c-4.238281-3.539062-10.542969-2.960937-14.078125 1.28125-3.535156 4.242188-2.960938 10.550781 1.28125 14.085938 1.871094 1.558593 4.140625 2.316406 6.398438 2.316406 2.863281 0 5.707031-1.222656 7.6875-3.597656 3.535156-4.242188 2.960937-10.546875-1.28125-14.082031zm0 0"/></svg>